# xmcd
# Track frame offsets:
# 150
# 12492
# 25564
# 39194
# 49637
# 61313
# 75552
# 91153
# 105940
# 118523
# 133536
# 146307
# 162764
# 174164
# 190267
#
# Disc length: 2749 seconds
# Revision: 0
# Processed by: cddbd v1.5.2PL0 Copyright (c) Steve Scherf et al.
# Submitted via: VisiTrax 2.11.1.266 - For more info visit www.synapsa.com
#
DISCID=a50abb0f
DTITLE=Pate Mustajärvi - Musta
DYEAR=2010
DGENRE=Country Rock
TTITLE0=Et voi ymmärtää
TTITLE1=Kaita tie
TTITLE2=Tuli polttaa
TTITLE3=Balladi teinikuningattaresta
TTITLE4=Kun ei niin ei
TTITLE5=Iso joki
TTITLE6=Ukko-Pekka
TTITLE7=Itkee saat
TTITLE8=Lilja
TTITLE9=Balladi pojasta nimeltä Vee
TTITLE10=Musta kissa
TTITLE11=Rakkauden juna
TTITLE12=Yksi vain ei tuu
TTITLE13=Yksinäisyys syö
TTITLE14=Niin kai kuitenkin käy
EXTD=
EXTT0=
EXTT1=
EXTT2=
EXTT3=
EXTT4=
EXTT5=
EXTT6=
EXTT7=
EXTT8=
EXTT9=
EXTT10=
EXTT11=
EXTT12=
EXTT13=
EXTT14=
PLAYORDER=
